<svg width="16" height="16" viewBox="0 0 16 16" fill="none" xmlns="http://www.w3.org/2000/svg">
<g clipPath="url(#clip0_36_10)">
<path d="M8 16C7.79078 16 7.59153 15.9601 7.40224 15.8803C7.21295 15.8005 7.04359 15.6908 6.89415 15.5411L0.458281 9.09726C0.308842 8.94763 0.199253 8.77805 0.119552 8.58853C0.0398506 8.399 0 8.1995 0 7.99002C0 7.78055 0.0398506 7.58105 0.119552 7.39152C0.199253 7.20199 0.308842 7.03242 0.458281 6.88279L6.89415 0.438903C7.19303 0.159601 7.59153 0 8 0C8.40847 0 8.80697 0.159601 9.10585 0.438903L15.5417 6.88279C15.6912 7.03242 15.8007 7.20199 15.8804 7.39152C15.9601 7.58105 16 7.78055 16 7.99002C16 8.1995 15.9601 8.399 15.8804 8.58853C15.8007 8.77805 15.6912 8.94763 15.5417 9.09726L9.10585 15.5411C8.95641 15.6908 8.78705 15.8005 8.59776 15.8803C8.40847 15.9601 8.20922 16 8 16ZM8 1.27681C8 1.27681 7.93026 1.27681 7.90037 1.29676C7.87049 1.30673 7.8406 1.32668 7.82067 1.35661L1.37484 7.81047C1.37484 7.81047 1.33499 7.86035 1.31507 7.89027C1.30511 7.9202 1.29514 7.95012 1.29514 7.99002C1.29514 8.02993 1.29514 8.05985 1.31507 8.08977C1.32503 8.1197 1.34496 8.14963 1.37484 8.16958L7.81071 14.6135C7.81071 14.6135 7.86052 14.6733 7.89041 14.6833C7.9203 14.7032 7.96015 14.7132 7.99004 14.7132C8.01993 14.7132 8.05978 14.7132 8.08966 14.6833C8.11955 14.6633 8.14944 14.6434 8.16936 14.6135L14.6052 8.16958C14.6052 8.16958 14.6451 8.1197 14.665 8.08977C14.675 8.05985 14.6849 8.01995 14.6849 7.99002C14.6849 7.9601 14.6849 7.9202 14.665 7.89027C14.655 7.86035 14.6351 7.83042 14.6052 7.81047L8.17933 1.35661C8.17933 1.35661 8.12951 1.30673 8.09963 1.29676C8.06974 1.28678 8.02989 1.27681 8 1.27681Z" fill="black"/>
<path d="M9.26035 10.0549C9.19061 10.0549 9.12087 10.0449 9.05113 10.015C8.98139 9.98504 8.93158 9.94514 8.88177 9.89526C8.78214 9.79551 8.72237 9.65586 8.72237 9.51621C8.72237 9.37656 8.78214 9.23691 8.88177 9.13716L10.0872 7.94015L8.88177 6.74314C8.83195 6.69327 8.7921 6.63342 8.76222 6.57357C8.73233 6.50374 8.7124 6.43391 8.7124 6.36409C8.7124 6.29426 8.72236 6.22444 8.75225 6.15461C8.78214 6.08479 8.82199 6.02494 8.8718 5.97506C8.92162 5.92519 8.98139 5.88529 9.05113 5.85536C9.12087 5.82544 9.19061 5.81546 9.26035 5.81546C9.33009 5.81546 9.39982 5.83541 9.46956 5.86534C9.5393 5.89526 9.58912 5.93516 9.63893 5.98504L11.2031 7.5611C11.2529 7.61097 11.2927 7.67082 11.3226 7.74065C11.3525 7.81047 11.3625 7.8803 11.3625 7.95012C11.3625 8.01995 11.3525 8.08977 11.3226 8.1596C11.2927 8.22943 11.2529 8.28928 11.2031 8.33915L9.63893 9.90524C9.58912 9.95511 9.52934 9.99501 9.46956 10.0249C9.39982 10.0549 9.34005 10.0648 9.26035 10.0648V10.0549Z" fill="black"/>
<path d="M5.86306 10.4638C5.72358 10.4638 5.5841 10.404 5.48448 10.3042C5.38485 10.2045 5.32507 10.0648 5.32507 9.92519V7.94015C5.32507 7.8005 5.38485 7.66085 5.48448 7.5611C5.5841 7.46135 5.72358 7.4015 5.86306 7.4015H10.8444C10.9839 7.4015 11.1233 7.46135 11.223 7.5611C11.3226 7.66085 11.3824 7.8005 11.3824 7.94015C11.3824 8.0798 11.3226 8.21945 11.223 8.3192C11.1233 8.41895 10.9839 8.4788 10.8444 8.4788H6.39108V9.90524C6.39108 9.97506 6.39108 10.0449 6.36119 10.1147C6.3313 10.1845 6.30141 10.2444 6.2516 10.2943C6.20179 10.3441 6.14201 10.384 6.07227 10.414C6.00253 10.4439 5.93279 10.4539 5.86306 10.4638Z" fill="black"/>
</g>
<defs>
<clipPath id="clip0_36_10">
<rect width="16" height="16" fill="white"/>
</clipPath>
</defs>
</svg>
